<mxfile host="app.diagrams.net" modified="2023-04-04T05:20:03.926Z" agent="Mozilla/5.0 (Windows NT 10.0; Win64; x64) AppleWebKit/537.36 (KHTML, like Gecko) Chrome/111.0.0.0 Safari/537.36" etag="y73PW0zMrnyRGWhFpjNr" version="21.1.2" type="device">
  <diagram name="Page-1" id="P7lBsPJW26RZpwVROjAR">
    <mxGraphModel dx="842" dy="464" grid="1" gridSize="10" guides="1" tooltips="1" connect="1" arrows="1" fold="1" page="1" pageScale="1" pageWidth="850" pageHeight="1100" math="0" shadow="0">
      <root>
        <mxCell id="0" />
        <mxCell id="1" parent="0" />
        <mxCell id="Qlq0NfXmMmyDEJgXqpXI-3" value="" style="edgeStyle=orthogonalEdgeStyle;rounded=0;orthogonalLoop=1;jettySize=auto;html=1;" edge="1" parent="1" source="Qlq0NfXmMmyDEJgXqpXI-1" target="Qlq0NfXmMmyDEJgXqpXI-2">
          <mxGeometry relative="1" as="geometry" />
        </mxCell>
        <mxCell id="Qlq0NfXmMmyDEJgXqpXI-1" value="App Comp" style="rounded=0;whiteSpace=wrap;html=1;" vertex="1" parent="1">
          <mxGeometry x="365" y="110" width="120" height="60" as="geometry" />
        </mxCell>
        <mxCell id="Qlq0NfXmMmyDEJgXqpXI-5" value="" style="edgeStyle=orthogonalEdgeStyle;rounded=0;orthogonalLoop=1;jettySize=auto;html=1;" edge="1" parent="1" source="Qlq0NfXmMmyDEJgXqpXI-2" target="Qlq0NfXmMmyDEJgXqpXI-4">
          <mxGeometry relative="1" as="geometry" />
        </mxCell>
        <mxCell id="Qlq0NfXmMmyDEJgXqpXI-7" style="edgeStyle=orthogonalEdgeStyle;rounded=0;orthogonalLoop=1;jettySize=auto;html=1;exitX=0.5;exitY=1;exitDx=0;exitDy=0;entryX=0.5;entryY=0;entryDx=0;entryDy=0;" edge="1" parent="1" source="Qlq0NfXmMmyDEJgXqpXI-2" target="Qlq0NfXmMmyDEJgXqpXI-6">
          <mxGeometry relative="1" as="geometry" />
        </mxCell>
        <mxCell id="Qlq0NfXmMmyDEJgXqpXI-9" style="edgeStyle=orthogonalEdgeStyle;rounded=0;orthogonalLoop=1;jettySize=auto;html=1;exitX=0.5;exitY=1;exitDx=0;exitDy=0;entryX=0.5;entryY=0;entryDx=0;entryDy=0;" edge="1" parent="1" source="Qlq0NfXmMmyDEJgXqpXI-2" target="Qlq0NfXmMmyDEJgXqpXI-8">
          <mxGeometry relative="1" as="geometry" />
        </mxCell>
        <mxCell id="Qlq0NfXmMmyDEJgXqpXI-2" value="Expenses Comp" style="rounded=0;whiteSpace=wrap;html=1;" vertex="1" parent="1">
          <mxGeometry x="365" y="210" width="120" height="60" as="geometry" />
        </mxCell>
        <mxCell id="Qlq0NfXmMmyDEJgXqpXI-11" value="" style="edgeStyle=orthogonalEdgeStyle;rounded=0;orthogonalLoop=1;jettySize=auto;html=1;" edge="1" parent="1" source="Qlq0NfXmMmyDEJgXqpXI-4" target="Qlq0NfXmMmyDEJgXqpXI-10">
          <mxGeometry relative="1" as="geometry" />
        </mxCell>
        <mxCell id="Qlq0NfXmMmyDEJgXqpXI-4" value="ExpenseItem Comp" style="rounded=0;whiteSpace=wrap;html=1;" vertex="1" parent="1">
          <mxGeometry x="365" y="320" width="120" height="60" as="geometry" />
        </mxCell>
        <mxCell id="Qlq0NfXmMmyDEJgXqpXI-6" value="AddExpense Comp" style="rounded=0;whiteSpace=wrap;html=1;" vertex="1" parent="1">
          <mxGeometry x="140" y="320" width="120" height="60" as="geometry" />
        </mxCell>
        <mxCell id="Qlq0NfXmMmyDEJgXqpXI-8" value="ExpenseFilter Comp" style="rounded=0;whiteSpace=wrap;html=1;" vertex="1" parent="1">
          <mxGeometry x="570" y="320" width="120" height="60" as="geometry" />
        </mxCell>
        <mxCell id="Qlq0NfXmMmyDEJgXqpXI-16" value="" style="edgeStyle=orthogonalEdgeStyle;rounded=0;orthogonalLoop=1;jettySize=auto;html=1;" edge="1" parent="1" source="Qlq0NfXmMmyDEJgXqpXI-10" target="Qlq0NfXmMmyDEJgXqpXI-15">
          <mxGeometry relative="1" as="geometry" />
        </mxCell>
        <mxCell id="Qlq0NfXmMmyDEJgXqpXI-10" value="ExpenseDate Comp" style="rounded=0;whiteSpace=wrap;html=1;" vertex="1" parent="1">
          <mxGeometry x="365" y="460" width="120" height="60" as="geometry" />
        </mxCell>
        <mxCell id="Qlq0NfXmMmyDEJgXqpXI-12" value="EXPENSES [ ]" style="text;html=1;align=center;verticalAlign=middle;resizable=0;points=[];autosize=1;strokeColor=none;fillColor=none;" vertex="1" parent="1">
          <mxGeometry x="500" y="210" width="100" height="30" as="geometry" />
        </mxCell>
        <mxCell id="Qlq0NfXmMmyDEJgXqpXI-13" value="Props" style="text;html=1;align=center;verticalAlign=middle;resizable=0;points=[];autosize=1;strokeColor=none;fillColor=none;" vertex="1" parent="1">
          <mxGeometry x="345" y="270" width="50" height="30" as="geometry" />
        </mxCell>
        <mxCell id="Qlq0NfXmMmyDEJgXqpXI-14" value="props" style="text;html=1;align=center;verticalAlign=middle;resizable=0;points=[];autosize=1;strokeColor=none;fillColor=none;" vertex="1" parent="1">
          <mxGeometry x="345" y="425" width="50" height="30" as="geometry" />
        </mxCell>
        <mxCell id="Qlq0NfXmMmyDEJgXqpXI-15" value="XYZ Comp" style="rounded=0;whiteSpace=wrap;html=1;" vertex="1" parent="1">
          <mxGeometry x="365" y="600" width="120" height="60" as="geometry" />
        </mxCell>
        <mxCell id="Qlq0NfXmMmyDEJgXqpXI-17" value="props" style="text;html=1;align=center;verticalAlign=middle;resizable=0;points=[];autosize=1;strokeColor=none;fillColor=none;" vertex="1" parent="1">
          <mxGeometry x="355" y="565" width="50" height="30" as="geometry" />
        </mxCell>
        <mxCell id="Qlq0NfXmMmyDEJgXqpXI-18" value="Prop Drilling" style="text;html=1;align=center;verticalAlign=middle;resizable=0;points=[];autosize=1;strokeColor=#82b366;fillColor=#d5e8d4;" vertex="1" parent="1">
          <mxGeometry x="115" y="220" width="90" height="30" as="geometry" />
        </mxCell>
        <mxCell id="Qlq0NfXmMmyDEJgXqpXI-20" style="edgeStyle=orthogonalEdgeStyle;rounded=0;orthogonalLoop=1;jettySize=auto;html=1;exitX=0;exitY=0.5;exitDx=0;exitDy=0;" edge="1" parent="1" source="Qlq0NfXmMmyDEJgXqpXI-19" target="Qlq0NfXmMmyDEJgXqpXI-2">
          <mxGeometry relative="1" as="geometry" />
        </mxCell>
        <mxCell id="Qlq0NfXmMmyDEJgXqpXI-21" style="edgeStyle=orthogonalEdgeStyle;rounded=0;orthogonalLoop=1;jettySize=auto;html=1;exitX=0.5;exitY=1;exitDx=0;exitDy=0;entryX=1;entryY=0.5;entryDx=0;entryDy=0;" edge="1" parent="1" source="Qlq0NfXmMmyDEJgXqpXI-19" target="Qlq0NfXmMmyDEJgXqpXI-10">
          <mxGeometry relative="1" as="geometry" />
        </mxCell>
        <mxCell id="Qlq0NfXmMmyDEJgXqpXI-19" value="Context API" style="ellipse;whiteSpace=wrap;html=1;fillColor=#d5e8d4;strokeColor=#82b366;" vertex="1" parent="1">
          <mxGeometry x="720" y="220" width="120" height="80" as="geometry" />
        </mxCell>
        <mxCell id="Qlq0NfXmMmyDEJgXqpXI-22" value="Provide" style="text;html=1;align=center;verticalAlign=middle;resizable=0;points=[];autosize=1;strokeColor=none;fillColor=none;" vertex="1" parent="1">
          <mxGeometry x="620" y="225" width="60" height="30" as="geometry" />
        </mxCell>
        <mxCell id="Qlq0NfXmMmyDEJgXqpXI-23" value="Consumer" style="text;html=1;align=center;verticalAlign=middle;resizable=0;points=[];autosize=1;strokeColor=none;fillColor=none;" vertex="1" parent="1">
          <mxGeometry x="650" y="595" width="80" height="30" as="geometry" />
        </mxCell>
      </root>
    </mxGraphModel>
  </diagram>
</mxfile>
